<svg width="1050" height="174" viewBox="0 0 1050 174" fill="none" xmlns="http://www.w3.org/2000/svg">
<path d="M45.022 0L21.5552 135H0.812988L24.2798 0H45.022ZM96.1743 39.9023L48.4497 85.4297L21.4673 109.424L19.0063 90.0879L38.6938 69.5215L69.6313 39.9023H96.1743ZM58.9966 135L36.3208 89.4727L51.0864 75.4102L81.7603 135H58.9966Z" fill="white"/>
<path d="M119.564 39.9023L103.04 135H82.386L98.9095 39.9023H119.564ZM101.81 15.293C101.751 11.8945 102.865 9.11133 105.15 6.94336C107.435 4.77539 110.247 3.66211 113.587 3.60352C116.81 3.54492 119.564 4.54102 121.849 6.5918C124.193 8.58398 125.365 11.25 125.365 14.5898C125.423 17.9883 124.281 20.7422 121.937 22.8516C119.652 24.9609 116.868 26.0449 113.587 26.1035C110.365 26.1621 107.611 25.2246 105.325 23.291C103.04 21.2988 101.868 18.6328 101.81 15.293Z" fill="white"/>
<path d="M174.506 114.082L194.281 0H215.111L191.645 135H173.012L174.506 114.082ZM118.959 89.209L119.135 87.3633C119.897 81.5039 121.274 75.6445 123.266 69.7852C125.317 63.9258 128.07 58.5645 131.527 53.7012C135.043 48.8379 139.32 44.9707 144.359 42.0996C149.457 39.2285 155.434 37.8809 162.289 38.0566C168.266 38.2324 173.246 39.7852 177.231 42.7148C181.215 45.6445 184.32 49.4238 186.547 54.0527C188.832 58.6816 190.385 63.6914 191.205 69.082C192.025 74.4141 192.289 79.6289 191.996 84.7266L191.293 90.7031C190.356 96.0938 188.774 101.543 186.547 107.051C184.32 112.559 181.42 117.598 177.846 122.168C174.33 126.738 170.111 130.371 165.19 133.066C160.326 135.762 154.76 137.021 148.49 136.846C142.221 136.611 137.035 135.029 132.934 132.1C128.832 129.111 125.668 125.273 123.442 120.586C121.215 115.84 119.779 110.742 119.135 105.293C118.49 99.7852 118.432 94.4238 118.959 89.209ZM140.053 87.1875L139.877 89.0332C139.525 92.0801 139.379 95.332 139.438 98.7891C139.496 102.246 139.965 105.557 140.844 108.721C141.781 111.826 143.334 114.404 145.502 116.455C147.729 118.506 150.834 119.619 154.818 119.795C159.447 119.971 163.549 118.916 167.123 116.631C170.756 114.346 173.774 111.357 176.176 107.666C178.578 103.975 180.277 100.049 181.274 95.8887L183.734 79.8047C183.91 76.875 183.705 73.9746 183.119 71.1035C182.592 68.2324 181.625 65.625 180.219 63.2812C178.813 60.9375 176.938 59.0332 174.594 57.5684C172.309 56.0449 169.525 55.2539 166.244 55.1953C161.908 55.0195 158.158 55.8984 154.994 57.832C151.889 59.7656 149.311 62.3438 147.26 65.5664C145.268 68.7891 143.686 72.3047 142.514 76.1133C141.342 79.9219 140.522 83.6133 140.053 87.1875Z" fill="white"/>
<path d="M206.597 89.0332L206.86 87.0117C207.563 80.4492 209.175 74.209 211.694 68.291C214.214 62.373 217.554 57.1289 221.714 52.5586C225.933 47.9297 230.884 44.3262 236.567 41.748C242.309 39.1699 248.696 37.9688 255.727 38.1445C262.524 38.2617 268.354 39.668 273.218 42.3633C278.14 45.0586 282.124 48.6621 285.171 53.1738C288.276 57.627 290.444 62.7246 291.675 68.4668C292.905 74.1504 293.227 80.0977 292.642 86.3086L292.466 88.3301C291.704 94.8926 290.034 101.104 287.456 106.963C284.936 112.822 281.567 118.037 277.349 122.607C273.188 127.119 268.237 130.664 262.495 133.242C256.811 135.762 250.483 136.934 243.511 136.758C236.772 136.641 230.942 135.264 226.02 132.627C221.157 129.932 217.173 126.357 214.067 121.904C211.02 117.451 208.882 112.412 207.651 106.787C206.421 101.104 206.069 95.1855 206.597 89.0332ZM227.427 87.0117L227.251 89.0332C226.958 92.2559 226.929 95.6543 227.163 99.2285C227.397 102.803 228.1 106.143 229.272 109.248C230.444 112.354 232.261 114.902 234.722 116.895C237.183 118.887 240.464 119.941 244.565 120.059C248.901 120.176 252.681 119.297 255.903 117.422C259.126 115.547 261.821 113.027 263.989 109.863C266.157 106.699 267.886 103.242 269.175 99.4922C270.464 95.6836 271.313 91.9629 271.724 88.3301L271.899 86.3086C272.251 83.1445 272.309 79.7754 272.075 76.2012C271.841 72.5684 271.138 69.1699 269.966 66.0059C268.794 62.7832 266.977 60.1758 264.517 58.1836C262.056 56.1328 258.774 55.0488 254.673 54.9316C250.278 54.8145 246.47 55.7227 243.247 57.6562C240.024 59.5312 237.329 62.0801 235.161 65.3027C232.993 68.5254 231.265 72.041 229.975 75.8496C228.745 79.6582 227.895 83.3789 227.427 87.0117Z" fill="white"/>
<path d="M319.459 112.939L353.121 39.9023H367.008L359.097 63.0176L325.523 135H313.131L319.459 112.939ZM319.547 39.9023L323.326 115.488L321.216 135H308.297L299.859 39.9023H319.547ZM374.039 112.324L402.427 39.9023H423.17L381.773 135H368.062L374.039 112.324ZM368.677 39.9023L377.115 114.258L375.972 135H364.634L355.406 60.9082L355.67 39.9023H368.677Z" fill="white"/>
<path d="M498.425 115.928L505.632 70.3125C505.984 67.2656 505.779 64.5117 505.017 62.0508C504.255 59.5898 502.849 57.6562 500.798 56.25C498.806 54.7852 496.169 54.0234 492.888 53.9648C489.958 53.9062 487.204 54.4043 484.626 55.459C482.048 56.4551 479.851 57.9492 478.034 59.9414C476.277 61.9336 475.105 64.3652 474.519 67.2363L453.865 67.3242C454.216 62.3438 455.681 58.0078 458.259 54.3164C460.896 50.5664 464.206 47.4902 468.191 45.0879C472.234 42.627 476.57 40.8398 481.199 39.7266C485.886 38.5547 490.456 37.998 494.909 38.0566C501.355 38.1738 507.068 39.5508 512.048 42.1875C517.029 44.8242 520.808 48.5449 523.386 53.3496C526.023 58.1543 527.019 63.9551 526.374 70.752L519.431 113.115C518.904 116.455 518.523 119.883 518.288 123.398C518.113 126.855 518.581 130.195 519.695 133.418L519.519 135L499.04 135.088C498.161 131.982 497.722 128.818 497.722 125.596C497.722 122.314 497.956 119.092 498.425 115.928ZM508.005 77.168L505.896 90.2637L492.185 90.1758C489.372 90.1758 486.472 90.4395 483.484 90.9668C480.554 91.4941 477.8 92.4023 475.222 93.6914C472.644 94.9805 470.476 96.7383 468.718 98.9648C466.96 101.133 465.876 103.857 465.466 107.139C465.173 109.775 465.466 112.061 466.345 113.994C467.283 115.869 468.689 117.363 470.564 118.477C472.439 119.59 474.665 120.176 477.243 120.234C480.701 120.293 484.099 119.619 487.439 118.213C490.837 116.807 493.767 114.814 496.228 112.236C498.747 109.6 500.476 106.582 501.413 103.184L506.951 112.676C505.661 116.25 503.845 119.531 501.501 122.52C499.216 125.508 496.55 128.086 493.503 130.254C490.456 132.422 487.117 134.092 483.484 135.264C479.909 136.436 476.218 136.992 472.409 136.934C467.136 136.816 462.331 135.615 457.995 133.33C453.659 130.986 450.232 127.734 447.712 123.574C445.193 119.414 444.079 114.609 444.372 109.16C444.665 103.008 446.218 97.8809 449.031 93.7793C451.902 89.6191 455.564 86.3379 460.017 83.9355C464.529 81.4746 469.451 79.7168 474.783 78.6621C480.115 77.6074 485.388 77.0801 490.603 77.0801L508.005 77.168Z" fill="white"/>
<path d="M559.52 61.4355L546.776 135H526.033L542.557 39.9023H561.981L559.52 61.4355ZM552.225 83.9355L545.897 84.0234C546.6 78.3398 547.977 72.7441 550.027 67.2363C552.137 61.6699 554.92 56.6895 558.377 52.2949C561.834 47.8418 566.024 44.3262 570.945 41.748C575.926 39.1699 581.668 37.9688 588.172 38.1445C593.328 38.2617 597.606 39.2871 601.004 41.2207C604.461 43.1543 607.127 45.7617 609.002 49.043C610.936 52.3242 612.195 56.0742 612.781 60.293C613.367 64.5117 613.397 68.9355 612.869 73.5645L602.674 135H581.844L592.215 73.3008C592.567 69.9023 592.449 66.8555 591.863 64.1602C591.277 61.4062 589.988 59.2383 587.996 57.6562C586.004 56.0156 583.133 55.166 579.383 55.1074C575.281 54.9902 571.678 55.752 568.572 57.3926C565.467 59.0332 562.801 61.2891 560.574 64.1602C558.348 66.9727 556.531 70.1074 555.125 73.5645C553.777 77.0215 552.811 80.4785 552.225 83.9355Z" fill="white"/>
<path d="M668.251 115.928L675.458 70.3125C675.809 67.2656 675.604 64.5117 674.843 62.0508C674.081 59.5898 672.675 57.6562 670.624 56.25C668.632 54.7852 665.995 54.0234 662.714 53.9648C659.784 53.9062 657.03 54.4043 654.452 55.459C651.874 56.4551 649.677 57.9492 647.86 59.9414C646.102 61.9336 644.931 64.3652 644.345 67.2363L623.69 67.3242C624.042 62.3438 625.507 58.0078 628.085 54.3164C630.722 50.5664 634.032 47.4902 638.016 45.0879C642.059 42.627 646.395 40.8398 651.024 39.7266C655.712 38.5547 660.282 37.998 664.735 38.0566C671.181 38.1738 676.893 39.5508 681.874 42.1875C686.854 44.8242 690.634 48.5449 693.212 53.3496C695.849 58.1543 696.845 63.9551 696.2 70.752L689.257 113.115C688.729 116.455 688.349 119.883 688.114 123.398C687.938 126.855 688.407 130.195 689.52 133.418L689.345 135L668.866 135.088C667.987 131.982 667.548 128.818 667.548 125.596C667.548 122.314 667.782 119.092 668.251 115.928ZM677.831 77.168L675.722 90.2637L662.011 90.1758C659.198 90.1758 656.298 90.4395 653.309 90.9668C650.38 91.4941 647.626 92.4023 645.048 93.6914C642.47 94.9805 640.302 96.7383 638.544 98.9648C636.786 101.133 635.702 103.857 635.292 107.139C634.999 109.775 635.292 112.061 636.171 113.994C637.108 115.869 638.515 117.363 640.39 118.477C642.265 119.59 644.491 120.176 647.069 120.234C650.526 120.293 653.925 119.619 657.265 118.213C660.663 116.807 663.593 114.814 666.054 112.236C668.573 109.6 670.302 106.582 671.239 103.184L676.776 112.676C675.487 116.25 673.671 119.531 671.327 122.52C669.042 125.508 666.376 128.086 663.329 130.254C660.282 132.422 656.942 134.092 653.309 135.264C649.735 136.436 646.044 136.992 642.235 136.934C636.962 136.816 632.157 135.615 627.821 133.33C623.485 130.986 620.057 127.734 617.538 123.574C615.018 119.414 613.905 114.609 614.198 109.16C614.491 103.008 616.044 97.8809 618.856 93.7793C621.727 89.6191 625.39 86.3379 629.843 83.9355C634.354 81.4746 639.276 79.7168 644.608 78.6621C649.94 77.6074 655.214 77.0801 660.429 77.0801L677.831 77.168Z" fill="white"/>
<path d="M741.65 0L718.183 135H697.529L720.908 0H741.65Z" fill="white"/>
<path d="M758.536 123.574L797.735 39.9023H820.586L764.864 149.59C763.282 152.871 761.465 155.977 759.415 158.906C757.422 161.836 755.137 164.414 752.559 166.641C749.981 168.867 747.081 170.596 743.858 171.826C740.694 173.115 737.12 173.76 733.135 173.76C731.319 173.701 729.532 173.496 727.774 173.145C725.958 172.852 724.17 172.5 722.413 172.09L723.907 155.83C724.551 155.889 725.196 155.947 725.84 156.006C726.485 156.123 727.129 156.182 727.774 156.182C731.114 156.299 734.043 155.859 736.563 154.863C739.083 153.926 741.28 152.461 743.155 150.469C745.088 148.477 746.788 146.045 748.252 143.174L758.536 123.574ZM758.711 39.9023L768.379 112.148L768.204 133.77L753.79 137.461L737.09 39.9023H758.711Z" fill="white"/>
<path d="M863.488 39.9023L860.763 55.3711H808.732L811.368 39.9023H863.488ZM830.441 16.6113H851.095L835.363 108.896C835.128 110.947 835.128 112.734 835.363 114.258C835.656 115.781 836.329 116.982 837.384 117.861C838.497 118.682 840.197 119.121 842.482 119.18C843.712 119.238 844.943 119.18 846.173 119.004C847.462 118.828 848.751 118.652 850.04 118.477L848.546 134.824C846.437 135.469 844.269 135.938 842.042 136.23C839.874 136.523 837.677 136.641 835.451 136.582C830.177 136.523 825.929 135.322 822.706 132.979C819.484 130.576 817.228 127.383 815.939 123.398C814.65 119.414 814.24 114.961 814.708 110.039L830.441 16.6113Z" fill="white"/>
<path d="M890.568 39.9023L874.045 135H853.391L869.914 39.9023H890.568ZM872.815 15.293C872.756 11.8945 873.869 9.11133 876.154 6.94336C878.44 4.77539 881.252 3.66211 884.592 3.60352C887.815 3.54492 890.568 4.54102 892.854 6.5918C895.197 8.58398 896.369 11.25 896.369 14.5898C896.428 17.9883 895.285 20.7422 892.942 22.8516C890.656 24.9609 887.873 26.0449 884.592 26.1035C881.369 26.1621 878.615 25.2246 876.33 23.291C874.045 21.2988 872.873 18.6328 872.815 15.293Z" fill="white"/>
<path d="M926.438 119.971C929.895 120.029 933.059 119.385 935.931 118.037C938.802 116.689 941.175 114.756 943.05 112.236C944.983 109.717 946.331 106.816 947.093 103.535L966.692 103.447C965.931 110.244 963.528 116.162 959.485 121.201C955.501 126.24 950.52 130.137 944.544 132.891C938.626 135.586 932.356 136.875 925.735 136.758C918.997 136.641 913.225 135.264 908.421 132.627C903.675 129.99 899.837 126.445 896.907 121.992C893.977 117.539 891.927 112.5 890.755 106.875C889.641 101.191 889.378 95.3027 889.964 89.209L890.315 86.0449C891.018 79.541 892.571 73.3887 894.974 67.5879C897.434 61.7871 900.686 56.6602 904.729 52.207C908.831 47.6953 913.665 44.1797 919.231 41.6602C924.798 39.1406 931.067 37.9688 938.04 38.1445C945.071 38.2617 951.136 39.873 956.233 42.9785C961.331 46.084 965.227 50.332 967.923 55.7227C970.618 61.0547 971.936 67.1484 971.878 74.0039L952.454 73.916C952.454 70.6348 951.897 67.5879 950.784 64.7754C949.729 61.9043 948.03 59.5898 945.686 57.832C943.401 56.0156 940.413 55.0488 936.722 54.9316C932.386 54.8145 928.665 55.6641 925.559 57.4805C922.513 59.2969 919.964 61.7578 917.913 64.8633C915.921 67.9688 914.339 71.3965 913.167 75.1465C912.054 78.8379 911.292 82.5 910.882 86.1328L910.53 89.209C910.237 92.3145 910.12 95.6543 910.179 99.2285C910.296 102.744 910.852 106.055 911.849 109.16C912.845 112.266 914.485 114.814 916.77 116.807C919.114 118.799 922.337 119.854 926.438 119.971Z" fill="white"/>
<path d="M1022.95 108.721C1023.42 105.498 1022.72 103.008 1020.84 101.25C1018.97 99.4336 1016.62 98.0566 1013.81 97.1191C1011 96.1816 1008.42 95.4199 1006.08 94.834C1002.5 93.9551 998.929 92.8418 995.355 91.4941C991.84 90.0879 988.617 88.3301 985.687 86.2207C982.758 84.1113 980.443 81.5332 978.744 78.4863C977.045 75.3809 976.283 71.6895 976.459 67.4121C976.693 62.4902 977.982 58.1836 980.326 54.4922C982.67 50.8008 985.687 47.7246 989.379 45.2637C993.129 42.8027 997.23 40.9863 1001.68 39.8145C1006.14 38.6426 1010.56 38.0859 1014.95 38.1445C1021.11 38.2617 1026.76 39.4629 1031.92 41.748C1037.13 44.0332 1041.29 47.4023 1044.4 51.8555C1047.56 56.3086 1049.11 61.8164 1049.06 68.3789L1028.49 68.291C1028.61 65.3613 1028.08 62.8418 1026.91 60.7324C1025.79 58.5645 1024.15 56.8945 1021.99 55.7227C1019.82 54.5508 1017.21 53.9355 1014.16 53.877C1011.53 53.8184 1008.92 54.2578 1006.34 55.1953C1003.82 56.1328 1001.65 57.5391 999.838 59.4141C998.021 61.2891 996.908 63.6621 996.498 66.5332C996.146 68.7598 996.468 70.6055 997.465 72.0703C998.461 73.4766 999.838 74.6191 1001.6 75.498C1003.35 76.377 1005.2 77.1094 1007.13 77.6953C1009.12 78.2227 1010.91 78.6621 1012.49 79.0137C1017.47 80.3613 1022.37 82.0898 1027.17 84.1992C1031.98 86.25 1035.9 89.1504 1038.95 92.9004C1042 96.5918 1043.37 101.455 1043.08 107.49C1042.9 112.646 1041.56 117.1 1039.04 120.85C1036.52 124.541 1033.29 127.588 1029.37 129.99C1025.44 132.334 1021.14 134.062 1016.45 135.176C1011.82 136.289 1007.25 136.816 1002.74 136.758C996.527 136.641 990.668 135.352 985.16 132.891C979.711 130.43 975.316 126.885 971.976 122.256C968.695 117.568 967.054 111.855 967.054 105.117L987.006 105.205C987.006 108.604 987.679 111.475 989.027 113.818C990.433 116.162 992.367 117.949 994.828 119.18C997.347 120.352 1000.28 120.967 1003.62 121.025C1006.37 121.025 1009.12 120.645 1011.88 119.883C1014.69 119.062 1017.09 117.744 1019.09 115.928C1021.14 114.111 1022.43 111.709 1022.95 108.721Z" fill="white"/>
</svg>
